<?xml version="1.0" ?><!DOCTYPE svg  PUBLIC '-//W3C//DTD SVG 1.1//EN'  'http://www.w3.org/Graphics/SVG/1.1/DTD/svg11.dtd'><svg height="100%" style="fill-rule:evenodd;clip-rule:evenodd;stroke-linejoin:round;stroke-miterlimit:1.41421;" version="1.1" viewBox="0 0 100 100" width="100%" xml:space="preserve" xmlns="http://www.w3.org/2000/svg" xmlns:xlink="http://www.w3.org/1999/xlink"><g transform="matrix(0.707107,-0.707107,0.707107,0.707107,-26.8691,58.7549)"><path d="M57.03,49.131L50.691,49.131C50.65,49.129 50.608,49.129 50.567,49.126C50.444,49.115 50.321,49.09 50.204,49.049C49.77,48.9 49.421,48.552 49.272,48.118C49.232,48 49.206,47.878 49.196,47.754C49.193,47.713 49.193,47.672 49.191,47.631C49.191,45.113 49.17,42.595 49.193,40.078C49.203,39.412 49.234,38.747 49.291,38.083C49.414,36.658 49.649,35.242 49.995,33.853C50.776,30.716 52.12,27.724 53.948,25.057C54.855,23.733 55.881,22.496 57.004,21.35L59.477,18.841C59.57,18.754 59.662,18.675 59.771,18.609C59.95,18.501 60.151,18.431 60.358,18.405C60.469,18.391 60.497,18.395 60.608,18.395C60.649,18.398 60.691,18.402 60.733,18.405C60.842,18.424 60.871,18.425 60.977,18.457C61.137,18.505 61.289,18.58 61.424,18.678C61.514,18.743 61.533,18.765 61.614,18.841C62.513,19.753 63.425,20.665 64.318,21.588C64.778,22.069 65.223,22.565 65.648,23.077C66.562,24.179 67.388,25.353 68.116,26.585C69.762,29.367 70.905,32.442 71.474,35.624C71.757,37.204 71.895,38.805 71.9,40.41L71.9,47.631C71.898,47.672 71.898,47.713 71.895,47.754C71.884,47.878 71.859,48 71.818,48.118C71.669,48.552 71.321,48.9 70.887,49.049C70.769,49.09 70.647,49.115 70.524,49.126C70.482,49.129 70.441,49.129 70.4,49.131L64.06,49.131C64.056,50.155 64.053,51.18 64.051,52.204C64.486,52.212 64.921,52.224 65.356,52.239C65.5,52.255 65.637,52.279 65.773,52.33C66.178,52.481 66.504,52.807 66.654,53.211C66.692,53.312 66.719,53.416 66.734,53.522C66.747,53.616 66.746,53.64 66.749,53.736C66.749,59.138 66.85,64.541 66.747,69.942C66.739,70.205 66.717,70.466 66.678,70.726C66.585,71.331 66.402,71.921 66.137,72.473C65.791,73.19 65.307,73.838 64.717,74.374C64.275,74.776 63.775,75.113 63.237,75.373C61.925,76.005 60.404,76.152 58.995,75.79C58.553,75.676 58.125,75.514 57.719,75.306C57.144,75.011 56.615,74.626 56.158,74.169C55.63,73.64 55.198,73.017 54.89,72.336C54.659,71.824 54.498,71.281 54.413,70.726C54.373,70.466 54.352,70.205 54.344,69.942C54.241,64.541 54.342,59.138 54.342,53.736C54.345,53.64 54.343,53.616 54.357,53.522C54.372,53.416 54.399,53.312 54.436,53.211C54.6,52.772 54.969,52.428 55.419,52.296C55.558,52.255 55.697,52.241 55.842,52.236C56.241,52.236 56.64,52.234 57.04,52.231C57.038,51.198 57.034,50.164 57.03,49.131ZM57.342,55.236C57.342,60.126 57.189,65.019 57.344,69.908C57.348,69.99 57.354,70.071 57.363,70.153C57.418,70.609 57.565,71.049 57.804,71.442C58.018,71.794 58.299,72.103 58.629,72.35C58.877,72.535 59.152,72.684 59.443,72.791C60.298,73.104 61.272,73.034 62.072,72.599C62.366,72.44 62.634,72.234 62.865,71.992C63.114,71.731 63.318,71.429 63.467,71.1C63.655,70.684 63.746,70.234 63.749,69.778L63.749,55.236C61.613,55.236 59.477,55.236 57.342,55.236ZM61.149,47.095C61.243,43.796 61.332,40.497 61.047,37.214C61.043,37.182 61.037,37.15 61.027,37.118C60.966,36.925 60.799,36.787 60.597,36.765C60.575,36.763 60.553,36.762 60.531,36.762C60.33,36.77 60.148,36.894 60.075,37.083C60.054,37.137 60.044,37.194 60.042,37.252L60.041,37.273L60.041,52.2C60.377,52.197 60.713,52.194 61.049,52.192C61.05,50.824 61.082,49.455 61.12,48.086C61.019,47.764 61.028,47.411 61.149,47.095ZM64.072,46.131L68.9,46.131C68.9,44.125 68.916,42.12 68.898,40.115C68.895,39.917 68.89,39.719 68.883,39.521C68.828,38.147 68.665,36.78 68.381,35.434C67.809,32.716 66.765,30.101 65.307,27.736C64.665,26.693 63.942,25.699 63.149,24.766C62.764,24.313 62.362,23.877 61.947,23.452L60.545,22.031C60.009,22.575 59.467,23.117 58.935,23.667C58.798,23.81 58.663,23.954 58.529,24.1C57.603,25.117 56.76,26.206 56.017,27.364C54.517,29.702 53.426,32.297 52.804,35.004C52.53,36.198 52.346,37.413 52.256,38.635C52.213,39.227 52.193,39.821 52.191,40.414L52.191,46.131L57.018,46.131C57.008,43.146 57.005,40.161 57.042,37.177C57.057,36.775 57.131,36.38 57.276,36.003C57.462,35.521 57.755,35.083 58.129,34.727C58.503,34.372 58.954,34.101 59.443,33.939C59.796,33.822 60.163,33.767 60.534,33.762C60.567,33.762 60.601,33.763 60.634,33.763C61.008,33.777 61.375,33.841 61.728,33.967C62.679,34.308 63.451,35.061 63.814,36.003C63.96,36.38 64.033,36.775 64.048,37.177C64.085,40.161 64.082,43.146 64.072,46.131Z" style="fill:black;"/></g></svg>